<svg width="32" height="32" viewBox="0 0 32 32" fill="none" xmlns="http://www.w3.org/2000/svg">
<path d="M26.6666 9.33337H5.33329C3.86053 9.33337 2.66663 10.5273 2.66663 12V25.3334C2.66663 26.8061 3.86053 28 5.33329 28H26.6666C28.1394 28 29.3333 26.8061 29.3333 25.3334V12C29.3333 10.5273 28.1394 9.33337 26.6666 9.33337Z" fill="#B2B2B2"/>
<path d="M21 25V6.33333C21 5.71449 20.7366 5.121 20.2678 4.68342C19.7989 4.24583 19.163 4 18.5 4H13.5C12.837 4 12.2011 4.24583 11.7322 4.68342C11.2634 5.121 11 5.71449 11 6.33333V25" stroke="#B2B2B2" stroke-linecap="round" stroke-linejoin="round"/>
</svg>
