<svg width="32" height="32" viewBox="0 0 32 32" fill="none" xmlns="http://www.w3.org/2000/svg">
<rect width="32" height="32" rx="5" fill="#B2B2B2"/>
<path d="M16 6V26" stroke="#161618" stroke-width="2" stroke-linecap="round" stroke-linejoin="round"/>
<path d="M20.1667 10H13.9167C13.1431 10 12.4013 10.3161 11.8543 10.8787C11.3073 11.4413 11 12.2044 11 13C11 13.7956 11.3073 14.5587 11.8543 15.1213C12.4013 15.6839 13.1431 16 13.9167 16H18.0833C18.8569 16 19.5987 16.3161 20.1457 16.8787C20.6927 17.4413 21 18.2044 21 19C21 19.7956 20.6927 20.5587 20.1457 21.1213C19.5987 21.6839 18.8569 22 18.0833 22H11" stroke="#161618" stroke-width="2" stroke-linecap="round" stroke-linejoin="round"/>
</svg>
