<svg width="32" height="32" viewBox="0 0 32 32" fill="none" xmlns="http://www.w3.org/2000/svg">
<g clip-path="url(#clip0_14_7846)">
<path d="M4 12.9781C4 12.3609 4.28495 11.7783 4.77212 11.3994L14.7721 3.62165C15.4943 3.05992 16.5057 3.05992 17.2279 3.62164L27.2279 11.3994C27.7151 11.7783 28 12.3609 28 12.9781V26.6666C28 27.3739 27.719 28.0521 27.219 28.5522C26.7189 29.0523 26.0406 29.3333 25.3333 29.3333H21C19.8954 29.3333 19 28.4379 19 27.3333V22C19 20.8954 18.1046 20 17 20H15C13.8954 20 13 20.8954 13 22V27.3333C13 28.4379 12.1046 29.3333 11 29.3333H6.66667C5.95942 29.3333 5.28115 29.0523 4.78105 28.5522C4.28095 28.0521 4 27.3739 4 26.6666V12.9781Z" fill="#B2B2B2"/>
</g>
<defs>
<clipPath id="clip0_14_7846">
<rect width="32" height="32" fill="white"/>
</clipPath>
</defs>
</svg>
