<svg width="34" height="34" viewBox="0 0 34 34" fill="none" xmlns="http://www.w3.org/2000/svg">
<g clip-path="url(#clip0_73_661)">
<path d="M9.28397 13.3135H9.55765C10.6113 13.3135 11.4734 14.1755 11.4734 15.2292V24.808C11.4734 25.8617 10.6113 26.7238 9.55765 26.7238H9.28397C8.2303 26.7238 7.36821 25.8617 7.36821 24.808V15.2292C7.36821 14.1755 8.2303 13.3135 9.28397 13.3135ZM16.947 7.56616C18.0007 7.56616 18.8628 8.42826 18.8628 9.48193V24.808C18.8628 25.8617 18.0007 26.7238 16.947 26.7238C15.8934 26.7238 15.0313 25.8617 15.0313 24.808V9.48193C15.0313 8.42826 15.8934 7.56616 16.947 7.56616ZM24.6101 18.5134C25.6638 18.5134 26.5259 19.3755 26.5259 20.4291V24.808C26.5259 25.8617 25.6638 26.7238 24.6101 26.7238C23.5564 26.7238 22.6943 25.8617 22.6943 24.808V20.4291C22.6943 19.3755 23.5564 18.5134 24.6101 18.5134Z" fill="white"/>
</g>
<defs>
<clipPath id="clip0_73_661">
<rect width="32.8417" height="32.8417" fill="white" transform="translate(0.526367 0.724121)"/>
</clipPath>
</defs>
</svg>
