<svg width="34" height="34" viewBox="0 0 34 34" fill="none" xmlns="http://www.w3.org/2000/svg">
<g clip-path="url(#clip0_73_670)">
<path d="M17.6733 15.6397C14.5671 14.8324 13.5681 13.9976 13.5681 12.6977C13.5681 11.2061 14.9502 10.1661 17.2628 10.1661C19.206 10.1661 20.1775 10.9051 20.5333 12.0819C20.6975 12.6292 21.1491 13.0398 21.7238 13.0398H22.1343C23.0375 13.0398 23.6806 12.1503 23.3659 11.3019C22.7912 9.68718 21.4501 8.34614 19.3154 7.82615V6.88195C19.3154 5.74618 18.3986 4.82935 17.2628 4.82935C16.127 4.82935 15.2102 5.74618 15.2102 6.88195V7.7851C12.5555 8.35982 10.4208 10.084 10.4208 12.725C10.4208 15.886 13.0345 17.4597 16.8523 18.3765C20.2733 19.1976 20.9575 20.4018 20.9575 21.6744C20.9575 22.6186 20.287 24.1238 17.2628 24.1238C15.005 24.1238 13.8418 23.3165 13.3902 22.167C13.185 21.6333 12.7197 21.2502 12.1587 21.2502H11.7755C10.8587 21.2502 10.2155 22.1807 10.5576 23.0291C11.3376 24.9312 13.1576 26.0533 15.2102 26.4912V27.408C15.2102 28.5438 16.127 29.4606 17.2628 29.4606C18.3986 29.4606 19.3154 28.5438 19.3154 27.408V26.5185C21.9838 26.0122 24.1048 24.4659 24.1048 21.6607C24.1048 17.7744 20.7796 16.4471 17.6733 15.6397Z" fill="white"/>
</g>
<defs>
<clipPath id="clip0_73_670">
<rect width="32.8417" height="32.8417" fill="white" transform="translate(0.526367 0.724121)"/>
</clipPath>
</defs>
</svg>
